<svg width="444" height="444" viewBox="0 0 444 444" fill="none" xmlns="http://www.w3.org/2000/svg">
<g clip-path="url(#clip0_1_2)">
<mask id="mask0_1_2" style="mask-type:luminance" maskUnits="userSpaceOnUse" x="0" y="0" width="444" height="444">
<path d="M443.47 0.499817H0.500244V443.47H443.47V0.499817Z" fill="white"/>
</mask>
<g mask="url(#mask0_1_2)">
<path fill-rule="evenodd" clip-rule="evenodd" d="M129.015 399.304C107.412 311.033 158.937 219.064 248.671 189.985C338.404 160.905 434.079 205.171 468.356 289.335L373.396 320.108C356.103 286.881 316.18 270.155 278.599 282.334C241.016 294.513 218.492 331.476 223.975 368.53L129.015 399.304ZM476.189 313.506C497.792 401.777 446.267 493.746 356.534 522.825C266.8 551.905 171.126 507.639 136.848 423.476L231.808 392.702C249.102 425.929 289.024 442.656 326.607 430.476C364.188 418.298 386.712 381.334 381.229 344.28L476.189 313.506ZM286.626 307.107C314.438 298.094 344.177 312.866 352.995 340.074C361.812 367.283 346.391 396.691 318.579 405.704C290.766 414.717 261.027 399.945 252.209 372.736C243.392 345.527 258.814 316.12 286.626 307.107Z" fill="#EBEBEB" fill-opacity="0.3"/>
<path d="M3.7677 5.5354C5.29626 5.5354 6.5354 4.29626 6.5354 2.7677C6.5354 1.23914 5.29626 0 3.7677 0C2.23914 0 1 1.23914 1 2.7677C1 4.29626 2.23914 5.5354 3.7677 5.5354Z" fill="white" fill-opacity="0.3"/>
<path d="M3.7677 20.1922C5.29626 20.1922 6.5354 18.953 6.5354 17.4245C6.5354 15.8959 5.29626 14.6568 3.7677 14.6568C2.23914 14.6568 1 15.8959 1 17.4245C1 18.953 2.23914 20.1922 3.7677 20.1922Z" fill="white" fill-opacity="0.3"/>
<path d="M3.7677 34.8473C5.29626 34.8473 6.5354 33.6081 6.5354 32.0796C6.5354 30.551 5.29626 29.3119 3.7677 29.3119C2.23914 29.3119 1 30.551 1 32.0796C1 33.6081 2.23914 34.8473 3.7677 34.8473Z" fill="white" fill-opacity="0.3"/>
<path d="M16.9449 5.5354C18.4735 5.5354 19.7126 4.29626 19.7126 2.7677C19.7126 1.23914 18.4735 0 16.9449 0C15.4164 0 14.1772 1.23914 14.1772 2.7677C14.1772 4.29626 15.4164 5.5354 16.9449 5.5354Z" fill="white" fill-opacity="0.3"/>
<path d="M16.9449 20.1922C18.4735 20.1922 19.7126 18.953 19.7126 17.4245C19.7126 15.8959 18.4735 14.6568 16.9449 14.6568C15.4164 14.6568 14.1772 15.8959 14.1772 17.4245C14.1772 18.953 15.4164 20.1922 16.9449 20.1922Z" fill="white" fill-opacity="0.3"/>
<path d="M16.9449 34.8473C18.4735 34.8473 19.7126 33.6081 19.7126 32.0796C19.7126 30.551 18.4735 29.3119 16.9449 29.3119C15.4164 29.3119 14.1772 30.551 14.1772 32.0796C14.1772 33.6081 15.4164 34.8473 16.9449 34.8473Z" fill="white" fill-opacity="0.3"/>
<path d="M30.9254 5.5354C32.454 5.5354 33.6931 4.29626 33.6931 2.7677C33.6931 1.23914 32.454 0 30.9254 0C29.3969 0 28.1577 1.23914 28.1577 2.7677C28.1577 4.29626 29.3969 5.5354 30.9254 5.5354Z" fill="white" fill-opacity="0.3"/>
<path d="M30.9254 20.1922C32.454 20.1922 33.6931 18.953 33.6931 17.4245C33.6931 15.8959 32.454 14.6568 30.9254 14.6568C29.3969 14.6568 28.1577 15.8959 28.1577 17.4245C28.1577 18.953 29.3969 20.1922 30.9254 20.1922Z" fill="white" fill-opacity="0.3"/>
<path d="M30.9254 34.8473C32.454 34.8473 33.6931 33.6081 33.6931 32.0796C33.6931 30.551 32.454 29.3119 30.9254 29.3119C29.3969 29.3119 28.1577 30.551 28.1577 32.0796C28.1577 33.6081 29.3969 34.8473 30.9254 34.8473Z" fill="white" fill-opacity="0.3"/>
<path d="M44.9054 5.5354C46.434 5.5354 47.6731 4.29626 47.6731 2.7677C47.6731 1.23914 46.434 0 44.9054 0C43.3768 0 42.1377 1.23914 42.1377 2.7677C42.1377 4.29626 43.3768 5.5354 44.9054 5.5354Z" fill="white" fill-opacity="0.3"/>
<path d="M44.9054 20.1922C46.434 20.1922 47.6731 18.953 47.6731 17.4245C47.6731 15.8959 46.434 14.6568 44.9054 14.6568C43.3768 14.6568 42.1377 15.8959 42.1377 17.4245C42.1377 18.953 43.3768 20.1922 44.9054 20.1922Z" fill="white" fill-opacity="0.3"/>
<path d="M44.9054 34.8473C46.434 34.8473 47.6731 33.6081 47.6731 32.0796C47.6731 30.551 46.434 29.3119 44.9054 29.3119C43.3768 29.3119 42.1377 30.551 42.1377 32.0796C42.1377 33.6081 43.3768 34.8473 44.9054 34.8473Z" fill="white" fill-opacity="0.3"/>
<path d="M58.8859 5.5354C60.4144 5.5354 61.6536 4.29626 61.6536 2.7677C61.6536 1.23914 60.4144 0 58.8859 0C57.3573 0 56.1182 1.23914 56.1182 2.7677C56.1182 4.29626 57.3573 5.5354 58.8859 5.5354Z" fill="white" fill-opacity="0.3"/>
<path d="M58.8859 20.1922C60.4144 20.1922 61.6536 18.953 61.6536 17.4245C61.6536 15.8959 60.4144 14.6568 58.8859 14.6568C57.3573 14.6568 56.1182 15.8959 56.1182 17.4245C56.1182 18.953 57.3573 20.1922 58.8859 20.1922Z" fill="white" fill-opacity="0.3"/>
<path d="M58.8859 34.8473C60.4144 34.8473 61.6536 33.6081 61.6536 32.0796C61.6536 30.551 60.4144 29.3119 58.8859 29.3119C57.3573 29.3119 56.1182 30.551 56.1182 32.0796C56.1182 33.6081 57.3573 34.8473 58.8859 34.8473Z" fill="white" fill-opacity="0.3"/>
<path d="M72.8658 5.5354C74.3944 5.5354 75.6335 4.29626 75.6335 2.7677C75.6335 1.23914 74.3944 0 72.8658 0C71.3373 0 70.0981 1.23914 70.0981 2.7677C70.0981 4.29626 71.3373 5.5354 72.8658 5.5354Z" fill="white" fill-opacity="0.3"/>
<path d="M72.8658 20.1922C74.3944 20.1922 75.6335 18.953 75.6335 17.4245C75.6335 15.8959 74.3944 14.6568 72.8658 14.6568C71.3373 14.6568 70.0981 15.8959 70.0981 17.4245C70.0981 18.953 71.3373 20.1922 72.8658 20.1922Z" fill="white" fill-opacity="0.3"/>
<path d="M72.8658 34.8473C74.3944 34.8473 75.6335 33.6081 75.6335 32.0796C75.6335 30.551 74.3944 29.3119 72.8658 29.3119C71.3373 29.3119 70.0981 30.551 70.0981 32.0796C70.0981 33.6081 71.3373 34.8473 72.8658 34.8473Z" fill="white" fill-opacity="0.3"/>
<path d="M3.7677 49.5354C5.29626 49.5354 6.5354 48.2963 6.5354 46.7677C6.5354 45.2391 5.29626 44 3.7677 44C2.23914 44 1 45.2391 1 46.7677C1 48.2963 2.23914 49.5354 3.7677 49.5354Z" fill="white" fill-opacity="0.3"/>
<path d="M3.7677 64.1922C5.29626 64.1922 6.5354 62.953 6.5354 61.4245C6.5354 59.8959 5.29626 58.6568 3.7677 58.6568C2.23914 58.6568 1 59.8959 1 61.4245C1 62.953 2.23914 64.1922 3.7677 64.1922Z" fill="white" fill-opacity="0.3"/>
<path d="M3.7677 78.8473C5.29626 78.8473 6.5354 77.6081 6.5354 76.0796C6.5354 74.551 5.29626 73.3119 3.7677 73.3119C2.23914 73.3119 1 74.551 1 76.0796C1 77.6081 2.23914 78.8473 3.7677 78.8473Z" fill="white" fill-opacity="0.3"/>
<path d="M16.9449 49.5354C18.4735 49.5354 19.7126 48.2963 19.7126 46.7677C19.7126 45.2391 18.4735 44 16.9449 44C15.4164 44 14.1772 45.2391 14.1772 46.7677C14.1772 48.2963 15.4164 49.5354 16.9449 49.5354Z" fill="white" fill-opacity="0.3"/>
<path d="M16.9449 64.1922C18.4735 64.1922 19.7126 62.953 19.7126 61.4245C19.7126 59.8959 18.4735 58.6568 16.9449 58.6568C15.4164 58.6568 14.1772 59.8959 14.1772 61.4245C14.1772 62.953 15.4164 64.1922 16.9449 64.1922Z" fill="white" fill-opacity="0.3"/>
<path d="M16.9449 78.8473C18.4735 78.8473 19.7126 77.6081 19.7126 76.0796C19.7126 74.551 18.4735 73.3119 16.9449 73.3119C15.4164 73.3119 14.1772 74.551 14.1772 76.0796C14.1772 77.6081 15.4164 78.8473 16.9449 78.8473Z" fill="white" fill-opacity="0.3"/>
<path d="M30.9254 49.5354C32.454 49.5354 33.6931 48.2963 33.6931 46.7677C33.6931 45.2391 32.454 44 30.9254 44C29.3969 44 28.1577 45.2391 28.1577 46.7677C28.1577 48.2963 29.3969 49.5354 30.9254 49.5354Z" fill="white" fill-opacity="0.3"/>
<path d="M30.9254 64.1922C32.454 64.1922 33.6931 62.953 33.6931 61.4245C33.6931 59.8959 32.454 58.6568 30.9254 58.6568C29.3969 58.6568 28.1577 59.8959 28.1577 61.4245C28.1577 62.953 29.3969 64.1922 30.9254 64.1922Z" fill="white" fill-opacity="0.3"/>
<path d="M30.9254 78.8473C32.454 78.8473 33.6931 77.6081 33.6931 76.0796C33.6931 74.551 32.454 73.3119 30.9254 73.3119C29.3969 73.3119 28.1577 74.551 28.1577 76.0796C28.1577 77.6081 29.3969 78.8473 30.9254 78.8473Z" fill="white" fill-opacity="0.3"/>
<path d="M44.9054 49.5354C46.434 49.5354 47.6731 48.2963 47.6731 46.7677C47.6731 45.2391 46.434 44 44.9054 44C43.3768 44 42.1377 45.2391 42.1377 46.7677C42.1377 48.2963 43.3768 49.5354 44.9054 49.5354Z" fill="white" fill-opacity="0.3"/>
<path d="M44.9054 64.1922C46.434 64.1922 47.6731 62.953 47.6731 61.4245C47.6731 59.8959 46.434 58.6568 44.9054 58.6568C43.3768 58.6568 42.1377 59.8959 42.1377 61.4245C42.1377 62.953 43.3768 64.1922 44.9054 64.1922Z" fill="white" fill-opacity="0.3"/>
<path d="M44.9054 78.8473C46.434 78.8473 47.6731 77.6081 47.6731 76.0796C47.6731 74.551 46.434 73.3119 44.9054 73.3119C43.3768 73.3119 42.1377 74.551 42.1377 76.0796C42.1377 77.6081 43.3768 78.8473 44.9054 78.8473Z" fill="white" fill-opacity="0.3"/>
<path d="M58.8859 49.5354C60.4144 49.5354 61.6536 48.2963 61.6536 46.7677C61.6536 45.2391 60.4144 44 58.8859 44C57.3573 44 56.1182 45.2391 56.1182 46.7677C56.1182 48.2963 57.3573 49.5354 58.8859 49.5354Z" fill="white" fill-opacity="0.3"/>
<path d="M58.8859 64.1922C60.4144 64.1922 61.6536 62.953 61.6536 61.4245C61.6536 59.8959 60.4144 58.6568 58.8859 58.6568C57.3573 58.6568 56.1182 59.8959 56.1182 61.4245C56.1182 62.953 57.3573 64.1922 58.8859 64.1922Z" fill="white" fill-opacity="0.3"/>
<path d="M58.8859 78.8473C60.4144 78.8473 61.6536 77.6081 61.6536 76.0796C61.6536 74.551 60.4144 73.3119 58.8859 73.3119C57.3573 73.3119 56.1182 74.551 56.1182 76.0796C56.1182 77.6081 57.3573 78.8473 58.8859 78.8473Z" fill="white" fill-opacity="0.3"/>
<path d="M72.8658 49.5354C74.3944 49.5354 75.6335 48.2963 75.6335 46.7677C75.6335 45.2391 74.3944 44 72.8658 44C71.3373 44 70.0981 45.2391 70.0981 46.7677C70.0981 48.2963 71.3373 49.5354 72.8658 49.5354Z" fill="white" fill-opacity="0.3"/>
<path d="M72.8658 64.1922C74.3944 64.1922 75.6335 62.953 75.6335 61.4245C75.6335 59.8959 74.3944 58.6568 72.8658 58.6568C71.3373 58.6568 70.0981 59.8959 70.0981 61.4245C70.0981 62.953 71.3373 64.1922 72.8658 64.1922Z" fill="white" fill-opacity="0.3"/>
<path d="M72.8658 78.8473C74.3944 78.8473 75.6335 77.6081 75.6335 76.0796C75.6335 74.551 74.3944 73.3119 72.8658 73.3119C71.3373 73.3119 70.0981 74.551 70.0981 76.0796C70.0981 77.6081 71.3373 78.8473 72.8658 78.8473Z" fill="white" fill-opacity="0.3"/>
<path d="M85.4012 5.5354C86.9298 5.5354 88.1689 4.29626 88.1689 2.7677C88.1689 1.23914 86.9298 0 85.4012 0C83.8727 0 82.6335 1.23914 82.6335 2.7677C82.6335 4.29626 83.8727 5.5354 85.4012 5.5354Z" fill="white" fill-opacity="0.3"/>
<path d="M85.4012 20.1922C86.9298 20.1922 88.1689 18.953 88.1689 17.4245C88.1689 15.8959 86.9298 14.6568 85.4012 14.6568C83.8727 14.6568 82.6335 15.8959 82.6335 17.4245C82.6335 18.953 83.8727 20.1922 85.4012 20.1922Z" fill="white" fill-opacity="0.3"/>
<path d="M85.4012 34.8473C86.9298 34.8473 88.1689 33.6081 88.1689 32.0796C88.1689 30.551 86.9298 29.3119 85.4012 29.3119C83.8727 29.3119 82.6335 30.551 82.6335 32.0796C82.6335 33.6081 83.8727 34.8473 85.4012 34.8473Z" fill="white" fill-opacity="0.3"/>
<path d="M98.5785 5.5354C100.107 5.5354 101.346 4.29626 101.346 2.7677C101.346 1.23914 100.107 0 98.5785 0C97.0499 0 95.8108 1.23914 95.8108 2.7677C95.8108 4.29626 97.0499 5.5354 98.5785 5.5354Z" fill="white" fill-opacity="0.3"/>
<path d="M98.5785 20.1922C100.107 20.1922 101.346 18.953 101.346 17.4245C101.346 15.8959 100.107 14.6568 98.5785 14.6568C97.0499 14.6568 95.8108 15.8959 95.8108 17.4245C95.8108 18.953 97.0499 20.1922 98.5785 20.1922Z" fill="white" fill-opacity="0.3"/>
<path d="M98.5785 34.8473C100.107 34.8473 101.346 33.6081 101.346 32.0796C101.346 30.551 100.107 29.3119 98.5785 29.3119C97.0499 29.3119 95.8108 30.551 95.8108 32.0796C95.8108 33.6081 97.0499 34.8473 98.5785 34.8473Z" fill="white" fill-opacity="0.3"/>
<path d="M112.559 5.5354C114.088 5.5354 115.327 4.29626 115.327 2.7677C115.327 1.23914 114.088 0 112.559 0C111.03 0 109.791 1.23914 109.791 2.7677C109.791 4.29626 111.03 5.5354 112.559 5.5354Z" fill="white" fill-opacity="0.3"/>
<path d="M112.559 20.1922C114.088 20.1922 115.327 18.953 115.327 17.4245C115.327 15.8959 114.088 14.6568 112.559 14.6568C111.03 14.6568 109.791 15.8959 109.791 17.4245C109.791 18.953 111.03 20.1922 112.559 20.1922Z" fill="white" fill-opacity="0.3"/>
<path d="M112.559 34.8473C114.088 34.8473 115.327 33.6081 115.327 32.0796C115.327 30.551 114.088 29.3119 112.559 29.3119C111.03 29.3119 109.791 30.551 109.791 32.0796C109.791 33.6081 111.03 34.8473 112.559 34.8473Z" fill="white" fill-opacity="0.3"/>
<path d="M126.539 5.5354C128.068 5.5354 129.307 4.29626 129.307 2.7677C129.307 1.23914 128.068 0 126.539 0C125.01 0 123.771 1.23914 123.771 2.7677C123.771 4.29626 125.01 5.5354 126.539 5.5354Z" fill="white" fill-opacity="0.3"/>
<path d="M126.539 20.1922C128.068 20.1922 129.307 18.953 129.307 17.4245C129.307 15.8959 128.068 14.6568 126.539 14.6568C125.01 14.6568 123.771 15.8959 123.771 17.4245C123.771 18.953 125.01 20.1922 126.539 20.1922Z" fill="white" fill-opacity="0.3"/>
<path d="M126.539 34.8473C128.068 34.8473 129.307 33.6081 129.307 32.0796C129.307 30.551 128.068 29.3119 126.539 29.3119C125.01 29.3119 123.771 30.551 123.771 32.0796C123.771 33.6081 125.01 34.8473 126.539 34.8473Z" fill="white" fill-opacity="0.3"/>
<path d="M140.519 5.5354C142.048 5.5354 143.287 4.29626 143.287 2.7677C143.287 1.23914 142.048 0 140.519 0C138.991 0 137.752 1.23914 137.752 2.7677C137.752 4.29626 138.991 5.5354 140.519 5.5354Z" fill="white" fill-opacity="0.3"/>
<path d="M140.519 20.1922C142.048 20.1922 143.287 18.953 143.287 17.4245C143.287 15.8959 142.048 14.6568 140.519 14.6568C138.991 14.6568 137.752 15.8959 137.752 17.4245C137.752 18.953 138.991 20.1922 140.519 20.1922Z" fill="white" fill-opacity="0.3"/>
<path d="M140.519 34.8473C142.048 34.8473 143.287 33.6081 143.287 32.0796C143.287 30.551 142.048 29.3119 140.519 29.3119C138.991 29.3119 137.752 30.551 137.752 32.0796C137.752 33.6081 138.991 34.8473 140.519 34.8473Z" fill="white" fill-opacity="0.3"/>
<path d="M154.499 5.5354C156.028 5.5354 157.267 4.29626 157.267 2.7677C157.267 1.23914 156.028 0 154.499 0C152.971 0 151.732 1.23914 151.732 2.7677C151.732 4.29626 152.971 5.5354 154.499 5.5354Z" fill="white" fill-opacity="0.3"/>
<path d="M154.499 20.1922C156.028 20.1922 157.267 18.953 157.267 17.4245C157.267 15.8959 156.028 14.6568 154.499 14.6568C152.971 14.6568 151.732 15.8959 151.732 17.4245C151.732 18.953 152.971 20.1922 154.499 20.1922Z" fill="white" fill-opacity="0.3"/>
<path d="M154.499 34.8473C156.028 34.8473 157.267 33.6081 157.267 32.0796C157.267 30.551 156.028 29.3119 154.499 29.3119C152.971 29.3119 151.732 30.551 151.732 32.0796C151.732 33.6081 152.971 34.8473 154.499 34.8473Z" fill="white" fill-opacity="0.3"/>
<path d="M85.4012 49.5354C86.9298 49.5354 88.1689 48.2963 88.1689 46.7677C88.1689 45.2391 86.9298 44 85.4012 44C83.8727 44 82.6335 45.2391 82.6335 46.7677C82.6335 48.2963 83.8727 49.5354 85.4012 49.5354Z" fill="white" fill-opacity="0.3"/>
<path d="M85.4012 64.1922C86.9298 64.1922 88.1689 62.953 88.1689 61.4245C88.1689 59.8959 86.9298 58.6568 85.4012 58.6568C83.8727 58.6568 82.6335 59.8959 82.6335 61.4245C82.6335 62.953 83.8727 64.1922 85.4012 64.1922Z" fill="white" fill-opacity="0.3"/>
<path d="M85.4012 78.8473C86.9298 78.8473 88.1689 77.6081 88.1689 76.0796C88.1689 74.551 86.9298 73.3119 85.4012 73.3119C83.8727 73.3119 82.6335 74.551 82.6335 76.0796C82.6335 77.6081 83.8727 78.8473 85.4012 78.8473Z" fill="white" fill-opacity="0.3"/>
<path d="M98.5785 49.5354C100.107 49.5354 101.346 48.2963 101.346 46.7677C101.346 45.2391 100.107 44 98.5785 44C97.0499 44 95.8108 45.2391 95.8108 46.7677C95.8108 48.2963 97.0499 49.5354 98.5785 49.5354Z" fill="white" fill-opacity="0.3"/>
<path d="M98.5785 64.1922C100.107 64.1922 101.346 62.953 101.346 61.4245C101.346 59.8959 100.107 58.6568 98.5785 58.6568C97.0499 58.6568 95.8108 59.8959 95.8108 61.4245C95.8108 62.953 97.0499 64.1922 98.5785 64.1922Z" fill="white" fill-opacity="0.3"/>
<path d="M98.5785 78.8473C100.107 78.8473 101.346 77.6081 101.346 76.0796C101.346 74.551 100.107 73.3119 98.5785 73.3119C97.0499 73.3119 95.8108 74.551 95.8108 76.0796C95.8108 77.6081 97.0499 78.8473 98.5785 78.8473Z" fill="white" fill-opacity="0.3"/>
<path d="M112.559 49.5354C114.088 49.5354 115.327 48.2963 115.327 46.7677C115.327 45.2391 114.088 44 112.559 44C111.03 44 109.791 45.2391 109.791 46.7677C109.791 48.2963 111.03 49.5354 112.559 49.5354Z" fill="white" fill-opacity="0.3"/>
<path d="M112.559 64.1922C114.088 64.1922 115.327 62.953 115.327 61.4245C115.327 59.8959 114.088 58.6568 112.559 58.6568C111.03 58.6568 109.791 59.8959 109.791 61.4245C109.791 62.953 111.03 64.1922 112.559 64.1922Z" fill="white" fill-opacity="0.3"/>
<path d="M112.559 78.8473C114.088 78.8473 115.327 77.6081 115.327 76.0796C115.327 74.551 114.088 73.3119 112.559 73.3119C111.03 73.3119 109.791 74.551 109.791 76.0796C109.791 77.6081 111.03 78.8473 112.559 78.8473Z" fill="white" fill-opacity="0.3"/>
<path d="M126.539 49.5354C128.068 49.5354 129.307 48.2963 129.307 46.7677C129.307 45.2391 128.068 44 126.539 44C125.01 44 123.771 45.2391 123.771 46.7677C123.771 48.2963 125.01 49.5354 126.539 49.5354Z" fill="white" fill-opacity="0.3"/>
<path d="M126.539 64.1922C128.068 64.1922 129.307 62.953 129.307 61.4245C129.307 59.8959 128.068 58.6568 126.539 58.6568C125.01 58.6568 123.771 59.8959 123.771 61.4245C123.771 62.953 125.01 64.1922 126.539 64.1922Z" fill="white" fill-opacity="0.3"/>
<path d="M126.539 78.8473C128.068 78.8473 129.307 77.6081 129.307 76.0796C129.307 74.551 128.068 73.3119 126.539 73.3119C125.01 73.3119 123.771 74.551 123.771 76.0796C123.771 77.6081 125.01 78.8473 126.539 78.8473Z" fill="white" fill-opacity="0.3"/>
<path d="M140.519 49.5354C142.048 49.5354 143.287 48.2963 143.287 46.7677C143.287 45.2391 142.048 44 140.519 44C138.991 44 137.752 45.2391 137.752 46.7677C137.752 48.2963 138.991 49.5354 140.519 49.5354Z" fill="white" fill-opacity="0.3"/>
<path d="M140.519 64.1922C142.048 64.1922 143.287 62.953 143.287 61.4245C143.287 59.8959 142.048 58.6568 140.519 58.6568C138.991 58.6568 137.752 59.8959 137.752 61.4245C137.752 62.953 138.991 64.1922 140.519 64.1922Z" fill="white" fill-opacity="0.3"/>
<path d="M140.519 78.8473C142.048 78.8473 143.287 77.6081 143.287 76.0796C143.287 74.551 142.048 73.3119 140.519 73.3119C138.991 73.3119 137.752 74.551 137.752 76.0796C137.752 77.6081 138.991 78.8473 140.519 78.8473Z" fill="white" fill-opacity="0.3"/>
<path d="M154.499 49.5354C156.028 49.5354 157.267 48.2963 157.267 46.7677C157.267 45.2391 156.028 44 154.499 44C152.971 44 151.732 45.2391 151.732 46.7677C151.732 48.2963 152.971 49.5354 154.499 49.5354Z" fill="white" fill-opacity="0.3"/>
<path d="M154.499 64.1922C156.028 64.1922 157.267 62.953 157.267 61.4245C157.267 59.8959 156.028 58.6568 154.499 58.6568C152.971 58.6568 151.732 59.8959 151.732 61.4245C151.732 62.953 152.971 64.1922 154.499 64.1922Z" fill="white" fill-opacity="0.3"/>
<path d="M154.499 78.8473C156.028 78.8473 157.267 77.6081 157.267 76.0796C157.267 74.551 156.028 73.3119 154.499 73.3119C152.971 73.3119 151.732 74.551 151.732 76.0796C151.732 77.6081 152.971 78.8473 154.499 78.8473Z" fill="white" fill-opacity="0.3"/>
<path d="M167.035 5.5354C168.563 5.5354 169.802 4.29626 169.802 2.7677C169.802 1.23914 168.563 0 167.035 0C165.506 0 164.267 1.23914 164.267 2.7677C164.267 4.29626 165.506 5.5354 167.035 5.5354Z" fill="white" fill-opacity="0.3"/>
<path d="M167.035 20.1922C168.563 20.1922 169.802 18.953 169.802 17.4245C169.802 15.8959 168.563 14.6568 167.035 14.6568C165.506 14.6568 164.267 15.8959 164.267 17.4245C164.267 18.953 165.506 20.1922 167.035 20.1922Z" fill="white" fill-opacity="0.3"/>
<path d="M167.035 34.8473C168.563 34.8473 169.802 33.6081 169.802 32.0796C169.802 30.551 168.563 29.3119 167.035 29.3119C165.506 29.3119 164.267 30.551 164.267 32.0796C164.267 33.6081 165.506 34.8473 167.035 34.8473Z" fill="white" fill-opacity="0.3"/>
<path d="M180.212 5.5354C181.741 5.5354 182.98 4.29626 182.98 2.7677C182.98 1.23914 181.741 0 180.212 0C178.683 0 177.444 1.23914 177.444 2.7677C177.444 4.29626 178.683 5.5354 180.212 5.5354Z" fill="white" fill-opacity="0.3"/>
<path d="M180.212 20.1922C181.741 20.1922 182.98 18.953 182.98 17.4245C182.98 15.8959 181.741 14.6568 180.212 14.6568C178.683 14.6568 177.444 15.8959 177.444 17.4245C177.444 18.953 178.683 20.1922 180.212 20.1922Z" fill="white" fill-opacity="0.3"/>
<path d="M180.212 34.8473C181.741 34.8473 182.98 33.6081 182.98 32.0796C182.98 30.551 181.741 29.3119 180.212 29.3119C178.683 29.3119 177.444 30.551 177.444 32.0796C177.444 33.6081 178.683 34.8473 180.212 34.8473Z" fill="white" fill-opacity="0.3"/>
<path d="M194.193 5.5354C195.721 5.5354 196.96 4.29626 196.96 2.7677C196.96 1.23914 195.721 0 194.193 0C192.664 0 191.425 1.23914 191.425 2.7677C191.425 4.29626 192.664 5.5354 194.193 5.5354Z" fill="white" fill-opacity="0.3"/>
<path d="M194.193 20.1922C195.721 20.1922 196.96 18.953 196.96 17.4245C196.96 15.8959 195.721 14.6568 194.193 14.6568C192.664 14.6568 191.425 15.8959 191.425 17.4245C191.425 18.953 192.664 20.1922 194.193 20.1922Z" fill="white" fill-opacity="0.3"/>
<path d="M194.193 34.8473C195.721 34.8473 196.96 33.6081 196.96 32.0796C196.96 30.551 195.721 29.3119 194.193 29.3119C192.664 29.3119 191.425 30.551 191.425 32.0796C191.425 33.6081 192.664 34.8473 194.193 34.8473Z" fill="white" fill-opacity="0.3"/>
<path d="M208.172 5.5354C209.701 5.5354 210.94 4.29626 210.94 2.7677C210.94 1.23914 209.701 0 208.172 0C206.644 0 205.405 1.23914 205.405 2.7677C205.405 4.29626 206.644 5.5354 208.172 5.5354Z" fill="white" fill-opacity="0.3"/>
<path d="M208.172 20.1922C209.701 20.1922 210.94 18.953 210.94 17.4245C210.94 15.8959 209.701 14.6568 208.172 14.6568C206.644 14.6568 205.405 15.8959 205.405 17.4245C205.405 18.953 206.644 20.1922 208.172 20.1922Z" fill="white" fill-opacity="0.3"/>
<path d="M208.172 34.8473C209.701 34.8473 210.94 33.6081 210.94 32.0796C210.94 30.551 209.701 29.3119 208.172 29.3119C206.644 29.3119 205.405 30.551 205.405 32.0796C205.405 33.6081 206.644 34.8473 208.172 34.8473Z" fill="white" fill-opacity="0.3"/>
<path d="M222.153 5.5354C223.682 5.5354 224.921 4.29626 224.921 2.7677C224.921 1.23914 223.682 0 222.153 0C220.624 0 219.385 1.23914 219.385 2.7677C219.385 4.29626 220.624 5.5354 222.153 5.5354Z" fill="white" fill-opacity="0.3"/>
<path d="M222.153 20.1922C223.682 20.1922 224.921 18.953 224.921 17.4245C224.921 15.8959 223.682 14.6568 222.153 14.6568C220.624 14.6568 219.385 15.8959 219.385 17.4245C219.385 18.953 220.624 20.1922 222.153 20.1922Z" fill="white" fill-opacity="0.3"/>
<path d="M222.153 34.8473C223.682 34.8473 224.921 33.6081 224.921 32.0796C224.921 30.551 223.682 29.3119 222.153 29.3119C220.624 29.3119 219.385 30.551 219.385 32.0796C219.385 33.6081 220.624 34.8473 222.153 34.8473Z" fill="white" fill-opacity="0.3"/>
<path d="M236.133 5.5354C237.661 5.5354 238.901 4.29626 238.901 2.7677C238.901 1.23914 237.661 0 236.133 0C234.604 0 233.365 1.23914 233.365 2.7677C233.365 4.29626 234.604 5.5354 236.133 5.5354Z" fill="white" fill-opacity="0.3"/>
<path d="M236.133 20.1922C237.661 20.1922 238.901 18.953 238.901 17.4245C238.901 15.8959 237.661 14.6568 236.133 14.6568C234.604 14.6568 233.365 15.8959 233.365 17.4245C233.365 18.953 234.604 20.1922 236.133 20.1922Z" fill="white" fill-opacity="0.3"/>
<path d="M236.133 34.8473C237.661 34.8473 238.901 33.6081 238.901 32.0796C238.901 30.551 237.661 29.3119 236.133 29.3119C234.604 29.3119 233.365 30.551 233.365 32.0796C233.365 33.6081 234.604 34.8473 236.133 34.8473Z" fill="white" fill-opacity="0.3"/>
<path d="M167.035 49.5354C168.563 49.5354 169.802 48.2963 169.802 46.7677C169.802 45.2391 168.563 44 167.035 44C165.506 44 164.267 45.2391 164.267 46.7677C164.267 48.2963 165.506 49.5354 167.035 49.5354Z" fill="white" fill-opacity="0.3"/>
<path d="M167.035 64.1922C168.563 64.1922 169.802 62.953 169.802 61.4245C169.802 59.8959 168.563 58.6568 167.035 58.6568C165.506 58.6568 164.267 59.8959 164.267 61.4245C164.267 62.953 165.506 64.1922 167.035 64.1922Z" fill="white" fill-opacity="0.3"/>
<path d="M167.035 78.8473C168.563 78.8473 169.802 77.6081 169.802 76.0796C169.802 74.551 168.563 73.3119 167.035 73.3119C165.506 73.3119 164.267 74.551 164.267 76.0796C164.267 77.6081 165.506 78.8473 167.035 78.8473Z" fill="white" fill-opacity="0.3"/>
<path d="M180.212 49.5354C181.741 49.5354 182.98 48.2963 182.98 46.7677C182.98 45.2391 181.741 44 180.212 44C178.683 44 177.444 45.2391 177.444 46.7677C177.444 48.2963 178.683 49.5354 180.212 49.5354Z" fill="white" fill-opacity="0.3"/>
<path d="M180.212 64.1922C181.741 64.1922 182.98 62.953 182.98 61.4245C182.98 59.8959 181.741 58.6568 180.212 58.6568C178.683 58.6568 177.444 59.8959 177.444 61.4245C177.444 62.953 178.683 64.1922 180.212 64.1922Z" fill="white" fill-opacity="0.3"/>
<path d="M180.212 78.8473C181.741 78.8473 182.98 77.6081 182.98 76.0796C182.98 74.551 181.741 73.3119 180.212 73.3119C178.683 73.3119 177.444 74.551 177.444 76.0796C177.444 77.6081 178.683 78.8473 180.212 78.8473Z" fill="white" fill-opacity="0.3"/>
<path d="M194.193 49.5354C195.721 49.5354 196.96 48.2963 196.96 46.7677C196.96 45.2391 195.721 44 194.193 44C192.664 44 191.425 45.2391 191.425 46.7677C191.425 48.2963 192.664 49.5354 194.193 49.5354Z" fill="white" fill-opacity="0.3"/>
<path d="M194.193 64.1922C195.721 64.1922 196.96 62.953 196.96 61.4245C196.96 59.8959 195.721 58.6568 194.193 58.6568C192.664 58.6568 191.425 59.8959 191.425 61.4245C191.425 62.953 192.664 64.1922 194.193 64.1922Z" fill="white" fill-opacity="0.3"/>
<path d="M194.193 78.8473C195.721 78.8473 196.96 77.6081 196.96 76.0796C196.96 74.551 195.721 73.3119 194.193 73.3119C192.664 73.3119 191.425 74.551 191.425 76.0796C191.425 77.6081 192.664 78.8473 194.193 78.8473Z" fill="white" fill-opacity="0.3"/>
<path d="M208.172 49.5354C209.701 49.5354 210.94 48.2963 210.94 46.7677C210.94 45.2391 209.701 44 208.172 44C206.644 44 205.405 45.2391 205.405 46.7677C205.405 48.2963 206.644 49.5354 208.172 49.5354Z" fill="white" fill-opacity="0.3"/>
<path d="M208.172 64.1922C209.701 64.1922 210.94 62.953 210.94 61.4245C210.94 59.8959 209.701 58.6568 208.172 58.6568C206.644 58.6568 205.405 59.8959 205.405 61.4245C205.405 62.953 206.644 64.1922 208.172 64.1922Z" fill="white" fill-opacity="0.3"/>
<path d="M208.172 78.8473C209.701 78.8473 210.94 77.6081 210.94 76.0796C210.94 74.551 209.701 73.3119 208.172 73.3119C206.644 73.3119 205.405 74.551 205.405 76.0796C205.405 77.6081 206.644 78.8473 208.172 78.8473Z" fill="white" fill-opacity="0.3"/>
<path d="M222.153 49.5354C223.682 49.5354 224.921 48.2963 224.921 46.7677C224.921 45.2391 223.682 44 222.153 44C220.624 44 219.385 45.2391 219.385 46.7677C219.385 48.2963 220.624 49.5354 222.153 49.5354Z" fill="white" fill-opacity="0.3"/>
<path d="M222.153 64.1922C223.682 64.1922 224.921 62.953 224.921 61.4245C224.921 59.8959 223.682 58.6568 222.153 58.6568C220.624 58.6568 219.385 59.8959 219.385 61.4245C219.385 62.953 220.624 64.1922 222.153 64.1922Z" fill="white" fill-opacity="0.3"/>
<path d="M222.153 78.8473C223.682 78.8473 224.921 77.6081 224.921 76.0796C224.921 74.551 223.682 73.3119 222.153 73.3119C220.624 73.3119 219.385 74.551 219.385 76.0796C219.385 77.6081 220.624 78.8473 222.153 78.8473Z" fill="white" fill-opacity="0.3"/>
<path d="M236.133 49.5354C237.661 49.5354 238.901 48.2963 238.901 46.7677C238.901 45.2391 237.661 44 236.133 44C234.604 44 233.365 45.2391 233.365 46.7677C233.365 48.2963 234.604 49.5354 236.133 49.5354Z" fill="white" fill-opacity="0.3"/>
<path d="M236.133 64.1922C237.661 64.1922 238.901 62.953 238.901 61.4245C238.901 59.8959 237.661 58.6568 236.133 58.6568C234.604 58.6568 233.365 59.8959 233.365 61.4245C233.365 62.953 234.604 64.1922 236.133 64.1922Z" fill="white" fill-opacity="0.3"/>
<path d="M236.133 78.8473C237.661 78.8473 238.901 77.6081 238.901 76.0796C238.901 74.551 237.661 73.3119 236.133 73.3119C234.604 73.3119 233.365 74.551 233.365 76.0796C233.365 77.6081 234.604 78.8473 236.133 78.8473Z" fill="white" fill-opacity="0.3"/>
<path d="M248.668 5.5354C250.197 5.5354 251.436 4.29626 251.436 2.7677C251.436 1.23914 250.197 0 248.668 0C247.14 0 245.901 1.23914 245.901 2.7677C245.901 4.29626 247.14 5.5354 248.668 5.5354Z" fill="white" fill-opacity="0.3"/>
<path d="M248.668 20.1922C250.197 20.1922 251.436 18.953 251.436 17.4245C251.436 15.8959 250.197 14.6568 248.668 14.6568C247.14 14.6568 245.901 15.8959 245.901 17.4245C245.901 18.953 247.14 20.1922 248.668 20.1922Z" fill="white" fill-opacity="0.3"/>
<path d="M248.668 34.8473C250.197 34.8473 251.436 33.6081 251.436 32.0796C251.436 30.551 250.197 29.3119 248.668 29.3119C247.14 29.3119 245.901 30.551 245.901 32.0796C245.901 33.6081 247.14 34.8473 248.668 34.8473Z" fill="white" fill-opacity="0.3"/>
<path d="M261.846 5.5354C263.374 5.5354 264.613 4.29626 264.613 2.7677C264.613 1.23914 263.374 0 261.846 0C260.317 0 259.078 1.23914 259.078 2.7677C259.078 4.29626 260.317 5.5354 261.846 5.5354Z" fill="white" fill-opacity="0.3"/>
<path d="M261.846 20.1922C263.374 20.1922 264.613 18.953 264.613 17.4245C264.613 15.8959 263.374 14.6568 261.846 14.6568C260.317 14.6568 259.078 15.8959 259.078 17.4245C259.078 18.953 260.317 20.1922 261.846 20.1922Z" fill="white" fill-opacity="0.3"/>
<path d="M261.846 34.8473C263.374 34.8473 264.613 33.6081 264.613 32.0796C264.613 30.551 263.374 29.3119 261.846 29.3119C260.317 29.3119 259.078 30.551 259.078 32.0796C259.078 33.6081 260.317 34.8473 261.846 34.8473Z" fill="white" fill-opacity="0.3"/>
<path d="M275.826 5.5354C277.355 5.5354 278.594 4.29626 278.594 2.7677C278.594 1.23914 277.355 0 275.826 0C274.297 0 273.058 1.23914 273.058 2.7677C273.058 4.29626 274.297 5.5354 275.826 5.5354Z" fill="white" fill-opacity="0.3"/>
<path d="M275.826 20.1922C277.355 20.1922 278.594 18.953 278.594 17.4245C278.594 15.8959 277.355 14.6568 275.826 14.6568C274.297 14.6568 273.058 15.8959 273.058 17.4245C273.058 18.953 274.297 20.1922 275.826 20.1922Z" fill="white" fill-opacity="0.3"/>
<path d="M275.826 34.8473C277.355 34.8473 278.594 33.6081 278.594 32.0796C278.594 30.551 277.355 29.3119 275.826 29.3119C274.297 29.3119 273.058 30.551 273.058 32.0796C273.058 33.6081 274.297 34.8473 275.826 34.8473Z" fill="white" fill-opacity="0.3"/>
<path d="M289.806 5.5354C291.335 5.5354 292.574 4.29626 292.574 2.7677C292.574 1.23914 291.335 0 289.806 0C288.277 0 287.038 1.23914 287.038 2.7677C287.038 4.29626 288.277 5.5354 289.806 5.5354Z" fill="white" fill-opacity="0.3"/>
<path d="M289.806 20.1922C291.335 20.1922 292.574 18.953 292.574 17.4245C292.574 15.8959 291.335 14.6568 289.806 14.6568C288.277 14.6568 287.038 15.8959 287.038 17.4245C287.038 18.953 288.277 20.1922 289.806 20.1922Z" fill="white" fill-opacity="0.3"/>
<path d="M289.806 34.8473C291.335 34.8473 292.574 33.6081 292.574 32.0796C292.574 30.551 291.335 29.3119 289.806 29.3119C288.277 29.3119 287.038 30.551 287.038 32.0796C287.038 33.6081 288.277 34.8473 289.806 34.8473Z" fill="white" fill-opacity="0.3"/>
<path d="M303.786 5.5354C305.315 5.5354 306.554 4.29626 306.554 2.7677C306.554 1.23914 305.315 0 303.786 0C302.258 0 301.019 1.23914 301.019 2.7677C301.019 4.29626 302.258 5.5354 303.786 5.5354Z" fill="white" fill-opacity="0.3"/>
<path d="M303.786 20.1922C305.315 20.1922 306.554 18.953 306.554 17.4245C306.554 15.8959 305.315 14.6568 303.786 14.6568C302.258 14.6568 301.019 15.8959 301.019 17.4245C301.019 18.953 302.258 20.1922 303.786 20.1922Z" fill="white" fill-opacity="0.3"/>
<path d="M303.786 34.8473C305.315 34.8473 306.554 33.6081 306.554 32.0796C306.554 30.551 305.315 29.3119 303.786 29.3119C302.258 29.3119 301.019 30.551 301.019 32.0796C301.019 33.6081 302.258 34.8473 303.786 34.8473Z" fill="white" fill-opacity="0.3"/>
<path d="M317.766 5.5354C319.295 5.5354 320.534 4.29626 320.534 2.7677C320.534 1.23914 319.295 0 317.766 0C316.238 0 314.999 1.23914 314.999 2.7677C314.999 4.29626 316.238 5.5354 317.766 5.5354Z" fill="white" fill-opacity="0.3"/>
<path d="M317.766 20.1922C319.295 20.1922 320.534 18.953 320.534 17.4245C320.534 15.8959 319.295 14.6568 317.766 14.6568C316.238 14.6568 314.999 15.8959 314.999 17.4245C314.999 18.953 316.238 20.1922 317.766 20.1922Z" fill="white" fill-opacity="0.3"/>
<path d="M317.766 34.8473C319.295 34.8473 320.534 33.6081 320.534 32.0796C320.534 30.551 319.295 29.3119 317.766 29.3119C316.238 29.3119 314.999 30.551 314.999 32.0796C314.999 33.6081 316.238 34.8473 317.766 34.8473Z" fill="white" fill-opacity="0.3"/>
<path d="M248.668 49.5354C250.197 49.5354 251.436 48.2963 251.436 46.7677C251.436 45.2391 250.197 44 248.668 44C247.14 44 245.901 45.2391 245.901 46.7677C245.901 48.2963 247.14 49.5354 248.668 49.5354Z" fill="white" fill-opacity="0.3"/>
<path d="M248.668 64.1922C250.197 64.1922 251.436 62.953 251.436 61.4245C251.436 59.8959 250.197 58.6568 248.668 58.6568C247.14 58.6568 245.901 59.8959 245.901 61.4245C245.901 62.953 247.14 64.1922 248.668 64.1922Z" fill="white" fill-opacity="0.3"/>
<path d="M248.668 78.8473C250.197 78.8473 251.436 77.6081 251.436 76.0796C251.436 74.551 250.197 73.3119 248.668 73.3119C247.14 73.3119 245.901 74.551 245.901 76.0796C245.901 77.6081 247.14 78.8473 248.668 78.8473Z" fill="white" fill-opacity="0.3"/>
<path d="M261.846 49.5354C263.374 49.5354 264.613 48.2963 264.613 46.7677C264.613 45.2391 263.374 44 261.846 44C260.317 44 259.078 45.2391 259.078 46.7677C259.078 48.2963 260.317 49.5354 261.846 49.5354Z" fill="white" fill-opacity="0.3"/>
<path d="M261.846 64.1922C263.374 64.1922 264.613 62.953 264.613 61.4245C264.613 59.8959 263.374 58.6568 261.846 58.6568C260.317 58.6568 259.078 59.8959 259.078 61.4245C259.078 62.953 260.317 64.1922 261.846 64.1922Z" fill="white" fill-opacity="0.3"/>
<path d="M261.846 78.8473C263.374 78.8473 264.613 77.6081 264.613 76.0796C264.613 74.551 263.374 73.3119 261.846 73.3119C260.317 73.3119 259.078 74.551 259.078 76.0796C259.078 77.6081 260.317 78.8473 261.846 78.8473Z" fill="white" fill-opacity="0.3"/>
<path d="M275.826 49.5354C277.355 49.5354 278.594 48.2963 278.594 46.7677C278.594 45.2391 277.355 44 275.826 44C274.297 44 273.058 45.2391 273.058 46.7677C273.058 48.2963 274.297 49.5354 275.826 49.5354Z" fill="white" fill-opacity="0.3"/>
<path d="M275.826 64.1922C277.355 64.1922 278.594 62.953 278.594 61.4245C278.594 59.8959 277.355 58.6568 275.826 58.6568C274.297 58.6568 273.058 59.8959 273.058 61.4245C273.058 62.953 274.297 64.1922 275.826 64.1922Z" fill="white" fill-opacity="0.3"/>
<path d="M275.826 78.8473C277.355 78.8473 278.594 77.6081 278.594 76.0796C278.594 74.551 277.355 73.3119 275.826 73.3119C274.297 73.3119 273.058 74.551 273.058 76.0796C273.058 77.6081 274.297 78.8473 275.826 78.8473Z" fill="white" fill-opacity="0.3"/>
<path d="M289.806 49.5354C291.335 49.5354 292.574 48.2963 292.574 46.7677C292.574 45.2391 291.335 44 289.806 44C288.277 44 287.038 45.2391 287.038 46.7677C287.038 48.2963 288.277 49.5354 289.806 49.5354Z" fill="white" fill-opacity="0.3"/>
<path d="M289.806 64.1922C291.335 64.1922 292.574 62.953 292.574 61.4245C292.574 59.8959 291.335 58.6568 289.806 58.6568C288.277 58.6568 287.038 59.8959 287.038 61.4245C287.038 62.953 288.277 64.1922 289.806 64.1922Z" fill="white" fill-opacity="0.3"/>
<path d="M289.806 78.8473C291.335 78.8473 292.574 77.6081 292.574 76.0796C292.574 74.551 291.335 73.3119 289.806 73.3119C288.277 73.3119 287.038 74.551 287.038 76.0796C287.038 77.6081 288.277 78.8473 289.806 78.8473Z" fill="white" fill-opacity="0.3"/>
<path d="M303.786 49.5354C305.315 49.5354 306.554 48.2963 306.554 46.7677C306.554 45.2391 305.315 44 303.786 44C302.258 44 301.019 45.2391 301.019 46.7677C301.019 48.2963 302.258 49.5354 303.786 49.5354Z" fill="white" fill-opacity="0.3"/>
<path d="M303.786 64.1922C305.315 64.1922 306.554 62.953 306.554 61.4245C306.554 59.8959 305.315 58.6568 303.786 58.6568C302.258 58.6568 301.019 59.8959 301.019 61.4245C301.019 62.953 302.258 64.1922 303.786 64.1922Z" fill="white" fill-opacity="0.3"/>
<path d="M303.786 78.8473C305.315 78.8473 306.554 77.6081 306.554 76.0796C306.554 74.551 305.315 73.3119 303.786 73.3119C302.258 73.3119 301.019 74.551 301.019 76.0796C301.019 77.6081 302.258 78.8473 303.786 78.8473Z" fill="white" fill-opacity="0.3"/>
<path d="M317.766 49.5354C319.295 49.5354 320.534 48.2963 320.534 46.7677C320.534 45.2391 319.295 44 317.766 44C316.238 44 314.999 45.2391 314.999 46.7677C314.999 48.2963 316.238 49.5354 317.766 49.5354Z" fill="white" fill-opacity="0.3"/>
<path d="M317.766 64.1922C319.295 64.1922 320.534 62.953 320.534 61.4245C320.534 59.8959 319.295 58.6568 317.766 58.6568C316.238 58.6568 314.999 59.8959 314.999 61.4245C314.999 62.953 316.238 64.1922 317.766 64.1922Z" fill="white" fill-opacity="0.3"/>
<path d="M317.766 78.8473C319.295 78.8473 320.534 77.6081 320.534 76.0796C320.534 74.551 319.295 73.3119 317.766 73.3119C316.238 73.3119 314.999 74.551 314.999 76.0796C314.999 77.6081 316.238 78.8473 317.766 78.8473Z" fill="white" fill-opacity="0.3"/>
<path d="M330.302 5.5354C331.83 5.5354 333.07 4.29626 333.07 2.7677C333.07 1.23914 331.83 0 330.302 0C328.773 0 327.534 1.23914 327.534 2.7677C327.534 4.29626 328.773 5.5354 330.302 5.5354Z" fill="white" fill-opacity="0.3"/>
<path d="M330.302 20.1922C331.83 20.1922 333.07 18.953 333.07 17.4245C333.07 15.8959 331.83 14.6568 330.302 14.6568C328.773 14.6568 327.534 15.8959 327.534 17.4245C327.534 18.953 328.773 20.1922 330.302 20.1922Z" fill="white" fill-opacity="0.3"/>
<path d="M330.302 34.8473C331.83 34.8473 333.07 33.6081 333.07 32.0796C333.07 30.551 331.83 29.3119 330.302 29.3119C328.773 29.3119 327.534 30.551 327.534 32.0796C327.534 33.6081 328.773 34.8473 330.302 34.8473Z" fill="white" fill-opacity="0.3"/>
<path d="M343.479 5.5354C345.008 5.5354 346.247 4.29626 346.247 2.7677C346.247 1.23914 345.008 0 343.479 0C341.951 0 340.711 1.23914 340.711 2.7677C340.711 4.29626 341.951 5.5354 343.479 5.5354Z" fill="white" fill-opacity="0.3"/>
<path d="M343.479 20.1922C345.008 20.1922 346.247 18.953 346.247 17.4245C346.247 15.8959 345.008 14.6568 343.479 14.6568C341.951 14.6568 340.711 15.8959 340.711 17.4245C340.711 18.953 341.951 20.1922 343.479 20.1922Z" fill="white" fill-opacity="0.3"/>
<path d="M343.479 34.8473C345.008 34.8473 346.247 33.6081 346.247 32.0796C346.247 30.551 345.008 29.3119 343.479 29.3119C341.951 29.3119 340.711 30.551 340.711 32.0796C340.711 33.6081 341.951 34.8473 343.479 34.8473Z" fill="white" fill-opacity="0.3"/>
<path d="M357.46 5.5354C358.988 5.5354 360.227 4.29626 360.227 2.7677C360.227 1.23914 358.988 0 357.46 0C355.931 0 354.692 1.23914 354.692 2.7677C354.692 4.29626 355.931 5.5354 357.46 5.5354Z" fill="white" fill-opacity="0.3"/>
<path d="M357.46 20.1922C358.988 20.1922 360.227 18.953 360.227 17.4245C360.227 15.8959 358.988 14.6568 357.46 14.6568C355.931 14.6568 354.692 15.8959 354.692 17.4245C354.692 18.953 355.931 20.1922 357.46 20.1922Z" fill="white" fill-opacity="0.3"/>
<path d="M357.46 34.8473C358.988 34.8473 360.227 33.6081 360.227 32.0796C360.227 30.551 358.988 29.3119 357.46 29.3119C355.931 29.3119 354.692 30.551 354.692 32.0796C354.692 33.6081 355.931 34.8473 357.46 34.8473Z" fill="white" fill-opacity="0.3"/>
<path d="M371.44 5.5354C372.968 5.5354 374.207 4.29626 374.207 2.7677C374.207 1.23914 372.968 0 371.44 0C369.911 0 368.672 1.23914 368.672 2.7677C368.672 4.29626 369.911 5.5354 371.44 5.5354Z" fill="white" fill-opacity="0.3"/>
<path d="M371.44 20.1922C372.968 20.1922 374.207 18.953 374.207 17.4245C374.207 15.8959 372.968 14.6568 371.44 14.6568C369.911 14.6568 368.672 15.8959 368.672 17.4245C368.672 18.953 369.911 20.1922 371.44 20.1922Z" fill="white" fill-opacity="0.3"/>
<path d="M371.44 34.8473C372.968 34.8473 374.207 33.6081 374.207 32.0796C374.207 30.551 372.968 29.3119 371.44 29.3119C369.911 29.3119 368.672 30.551 368.672 32.0796C368.672 33.6081 369.911 34.8473 371.44 34.8473Z" fill="white" fill-opacity="0.3"/>
<path d="M385.42 5.5354C386.949 5.5354 388.188 4.29626 388.188 2.7677C388.188 1.23914 386.949 0 385.42 0C383.891 0 382.652 1.23914 382.652 2.7677C382.652 4.29626 383.891 5.5354 385.42 5.5354Z" fill="white" fill-opacity="0.3"/>
<path d="M385.42 20.1922C386.949 20.1922 388.188 18.953 388.188 17.4245C388.188 15.8959 386.949 14.6568 385.42 14.6568C383.891 14.6568 382.652 15.8959 382.652 17.4245C382.652 18.953 383.891 20.1922 385.42 20.1922Z" fill="white" fill-opacity="0.3"/>
<path d="M385.42 34.8473C386.949 34.8473 388.188 33.6081 388.188 32.0796C388.188 30.551 386.949 29.3119 385.42 29.3119C383.891 29.3119 382.652 30.551 382.652 32.0796C382.652 33.6081 383.891 34.8473 385.42 34.8473Z" fill="white" fill-opacity="0.3"/>
<path d="M399.4 5.5354C400.929 5.5354 402.168 4.29626 402.168 2.7677C402.168 1.23914 400.929 0 399.4 0C397.871 0 396.632 1.23914 396.632 2.7677C396.632 4.29626 397.871 5.5354 399.4 5.5354Z" fill="white" fill-opacity="0.3"/>
<path d="M399.4 20.1922C400.929 20.1922 402.168 18.953 402.168 17.4245C402.168 15.8959 400.929 14.6568 399.4 14.6568C397.871 14.6568 396.632 15.8959 396.632 17.4245C396.632 18.953 397.871 20.1922 399.4 20.1922Z" fill="white" fill-opacity="0.3"/>
<path d="M399.4 34.8473C400.929 34.8473 402.168 33.6081 402.168 32.0796C402.168 30.551 400.929 29.3119 399.4 29.3119C397.871 29.3119 396.632 30.551 396.632 32.0796C396.632 33.6081 397.871 34.8473 399.4 34.8473Z" fill="white" fill-opacity="0.3"/>
<path d="M330.302 49.5354C331.83 49.5354 333.07 48.2963 333.07 46.7677C333.07 45.2391 331.83 44 330.302 44C328.773 44 327.534 45.2391 327.534 46.7677C327.534 48.2963 328.773 49.5354 330.302 49.5354Z" fill="white" fill-opacity="0.3"/>
<path d="M330.302 64.1922C331.83 64.1922 333.07 62.953 333.07 61.4245C333.07 59.8959 331.83 58.6568 330.302 58.6568C328.773 58.6568 327.534 59.8959 327.534 61.4245C327.534 62.953 328.773 64.1922 330.302 64.1922Z" fill="white" fill-opacity="0.3"/>
<path d="M330.302 78.8473C331.83 78.8473 333.07 77.6081 333.07 76.0796C333.07 74.551 331.83 73.3119 330.302 73.3119C328.773 73.3119 327.534 74.551 327.534 76.0796C327.534 77.6081 328.773 78.8473 330.302 78.8473Z" fill="white" fill-opacity="0.3"/>
<path d="M343.479 49.5354C345.008 49.5354 346.247 48.2963 346.247 46.7677C346.247 45.2391 345.008 44 343.479 44C341.951 44 340.711 45.2391 340.711 46.7677C340.711 48.2963 341.951 49.5354 343.479 49.5354Z" fill="white" fill-opacity="0.3"/>
<path d="M343.479 64.1922C345.008 64.1922 346.247 62.953 346.247 61.4245C346.247 59.8959 345.008 58.6568 343.479 58.6568C341.951 58.6568 340.711 59.8959 340.711 61.4245C340.711 62.953 341.951 64.1922 343.479 64.1922Z" fill="white" fill-opacity="0.3"/>
<path d="M343.479 78.8473C345.008 78.8473 346.247 77.6081 346.247 76.0796C346.247 74.551 345.008 73.3119 343.479 73.3119C341.951 73.3119 340.711 74.551 340.711 76.0796C340.711 77.6081 341.951 78.8473 343.479 78.8473Z" fill="white" fill-opacity="0.3"/>
<path d="M357.46 49.5354C358.988 49.5354 360.227 48.2963 360.227 46.7677C360.227 45.2391 358.988 44 357.46 44C355.931 44 354.692 45.2391 354.692 46.7677C354.692 48.2963 355.931 49.5354 357.46 49.5354Z" fill="white" fill-opacity="0.3"/>
<path d="M357.46 64.1922C358.988 64.1922 360.227 62.953 360.227 61.4245C360.227 59.8959 358.988 58.6568 357.46 58.6568C355.931 58.6568 354.692 59.8959 354.692 61.4245C354.692 62.953 355.931 64.1922 357.46 64.1922Z" fill="white" fill-opacity="0.3"/>
<path d="M357.46 78.8473C358.988 78.8473 360.227 77.6081 360.227 76.0796C360.227 74.551 358.988 73.3119 357.46 73.3119C355.931 73.3119 354.692 74.551 354.692 76.0796C354.692 77.6081 355.931 78.8473 357.46 78.8473Z" fill="white" fill-opacity="0.3"/>
<path d="M371.44 49.5354C372.968 49.5354 374.207 48.2963 374.207 46.7677C374.207 45.2391 372.968 44 371.44 44C369.911 44 368.672 45.2391 368.672 46.7677C368.672 48.2963 369.911 49.5354 371.44 49.5354Z" fill="white" fill-opacity="0.3"/>
<path d="M371.44 64.1922C372.968 64.1922 374.207 62.953 374.207 61.4245C374.207 59.8959 372.968 58.6568 371.44 58.6568C369.911 58.6568 368.672 59.8959 368.672 61.4245C368.672 62.953 369.911 64.1922 371.44 64.1922Z" fill="white" fill-opacity="0.3"/>
<path d="M371.44 78.8473C372.968 78.8473 374.207 77.6081 374.207 76.0796C374.207 74.551 372.968 73.3119 371.44 73.3119C369.911 73.3119 368.672 74.551 368.672 76.0796C368.672 77.6081 369.911 78.8473 371.44 78.8473Z" fill="white" fill-opacity="0.3"/>
<path d="M385.42 49.5354C386.949 49.5354 388.188 48.2963 388.188 46.7677C388.188 45.2391 386.949 44 385.42 44C383.891 44 382.652 45.2391 382.652 46.7677C382.652 48.2963 383.891 49.5354 385.42 49.5354Z" fill="white" fill-opacity="0.3"/>
<path d="M385.42 64.1922C386.949 64.1922 388.188 62.953 388.188 61.4245C388.188 59.8959 386.949 58.6568 385.42 58.6568C383.891 58.6568 382.652 59.8959 382.652 61.4245C382.652 62.953 383.891 64.1922 385.42 64.1922Z" fill="white" fill-opacity="0.3"/>
<path d="M385.42 78.8473C386.949 78.8473 388.188 77.6081 388.188 76.0796C388.188 74.551 386.949 73.3119 385.42 73.3119C383.891 73.3119 382.652 74.551 382.652 76.0796C382.652 77.6081 383.891 78.8473 385.42 78.8473Z" fill="white" fill-opacity="0.3"/>
<path d="M399.4 49.5354C400.929 49.5354 402.168 48.2963 402.168 46.7677C402.168 45.2391 400.929 44 399.4 44C397.871 44 396.632 45.2391 396.632 46.7677C396.632 48.2963 397.871 49.5354 399.4 49.5354Z" fill="white" fill-opacity="0.3"/>
<path d="M399.4 64.1922C400.929 64.1922 402.168 62.953 402.168 61.4245C402.168 59.8959 400.929 58.6568 399.4 58.6568C397.871 58.6568 396.632 59.8959 396.632 61.4245C396.632 62.953 397.871 64.1922 399.4 64.1922Z" fill="white" fill-opacity="0.3"/>
<path d="M399.4 78.8473C400.929 78.8473 402.168 77.6081 402.168 76.0796C402.168 74.551 400.929 73.3119 399.4 73.3119C397.871 73.3119 396.632 74.551 396.632 76.0796C396.632 77.6081 397.871 78.8473 399.4 78.8473Z" fill="white" fill-opacity="0.3"/>
<path d="M411.935 5.5354C413.464 5.5354 414.703 4.29626 414.703 2.7677C414.703 1.23914 413.464 0 411.935 0C410.407 0 409.168 1.23914 409.168 2.7677C409.168 4.29626 410.407 5.5354 411.935 5.5354Z" fill="white" fill-opacity="0.3"/>
<path d="M411.935 20.1922C413.464 20.1922 414.703 18.953 414.703 17.4245C414.703 15.8959 413.464 14.6568 411.935 14.6568C410.407 14.6568 409.168 15.8959 409.168 17.4245C409.168 18.953 410.407 20.1922 411.935 20.1922Z" fill="white" fill-opacity="0.3"/>
<path d="M411.935 34.8473C413.464 34.8473 414.703 33.6081 414.703 32.0796C414.703 30.551 413.464 29.3119 411.935 29.3119C410.407 29.3119 409.168 30.551 409.168 32.0796C409.168 33.6081 410.407 34.8473 411.935 34.8473Z" fill="white" fill-opacity="0.3"/>
<path d="M425.113 5.5354C426.641 5.5354 427.88 4.29626 427.88 2.7677C427.88 1.23914 426.641 0 425.113 0C423.584 0 422.345 1.23914 422.345 2.7677C422.345 4.29626 423.584 5.5354 425.113 5.5354Z" fill="white" fill-opacity="0.3"/>
<path d="M425.113 20.1922C426.641 20.1922 427.88 18.953 427.88 17.4245C427.88 15.8959 426.641 14.6568 425.113 14.6568C423.584 14.6568 422.345 15.8959 422.345 17.4245C422.345 18.953 423.584 20.1922 425.113 20.1922Z" fill="white" fill-opacity="0.3"/>
<path d="M425.113 34.8473C426.641 34.8473 427.88 33.6081 427.88 32.0796C427.88 30.551 426.641 29.3119 425.113 29.3119C423.584 29.3119 422.345 30.551 422.345 32.0796C422.345 33.6081 423.584 34.8473 425.113 34.8473Z" fill="white" fill-opacity="0.3"/>
<path d="M439.093 5.5354C440.622 5.5354 441.861 4.29626 441.861 2.7677C441.861 1.23914 440.622 0 439.093 0C437.565 0 436.325 1.23914 436.325 2.7677C436.325 4.29626 437.565 5.5354 439.093 5.5354Z" fill="white" fill-opacity="0.3"/>
<path d="M439.093 20.1922C440.622 20.1922 441.861 18.953 441.861 17.4245C441.861 15.8959 440.622 14.6568 439.093 14.6568C437.565 14.6568 436.325 15.8959 436.325 17.4245C436.325 18.953 437.565 20.1922 439.093 20.1922Z" fill="white" fill-opacity="0.3"/>
<path d="M439.093 34.8473C440.622 34.8473 441.861 33.6081 441.861 32.0796C441.861 30.551 440.622 29.3119 439.093 29.3119C437.565 29.3119 436.325 30.551 436.325 32.0796C436.325 33.6081 437.565 34.8473 439.093 34.8473Z" fill="white" fill-opacity="0.3"/>
<path d="M411.935 49.5354C413.464 49.5354 414.703 48.2963 414.703 46.7677C414.703 45.2391 413.464 44 411.935 44C410.407 44 409.168 45.2391 409.168 46.7677C409.168 48.2963 410.407 49.5354 411.935 49.5354Z" fill="white" fill-opacity="0.3"/>
<path d="M411.935 64.1922C413.464 64.1922 414.703 62.953 414.703 61.4245C414.703 59.8959 413.464 58.6568 411.935 58.6568C410.407 58.6568 409.168 59.8959 409.168 61.4245C409.168 62.953 410.407 64.1922 411.935 64.1922Z" fill="white" fill-opacity="0.3"/>
<path d="M411.935 78.8473C413.464 78.8473 414.703 77.6081 414.703 76.0796C414.703 74.551 413.464 73.3119 411.935 73.3119C410.407 73.3119 409.168 74.551 409.168 76.0796C409.168 77.6081 410.407 78.8473 411.935 78.8473Z" fill="white" fill-opacity="0.3"/>
<path d="M425.113 49.5354C426.641 49.5354 427.88 48.2963 427.88 46.7677C427.88 45.2391 426.641 44 425.113 44C423.584 44 422.345 45.2391 422.345 46.7677C422.345 48.2963 423.584 49.5354 425.113 49.5354Z" fill="white" fill-opacity="0.3"/>
<path d="M425.113 64.1922C426.641 64.1922 427.88 62.953 427.88 61.4245C427.88 59.8959 426.641 58.6568 425.113 58.6568C423.584 58.6568 422.345 59.8959 422.345 61.4245C422.345 62.953 423.584 64.1922 425.113 64.1922Z" fill="white" fill-opacity="0.3"/>
<path d="M425.113 78.8473C426.641 78.8473 427.88 77.6081 427.88 76.0796C427.88 74.551 426.641 73.3119 425.113 73.3119C423.584 73.3119 422.345 74.551 422.345 76.0796C422.345 77.6081 423.584 78.8473 425.113 78.8473Z" fill="white" fill-opacity="0.3"/>
<path d="M439.093 49.5354C440.622 49.5354 441.861 48.2963 441.861 46.7677C441.861 45.2391 440.622 44 439.093 44C437.565 44 436.325 45.2391 436.325 46.7677C436.325 48.2963 437.565 49.5354 439.093 49.5354Z" fill="white" fill-opacity="0.3"/>
<path d="M439.093 64.1922C440.622 64.1922 441.861 62.953 441.861 61.4245C441.861 59.8959 440.622 58.6568 439.093 58.6568C437.565 58.6568 436.325 59.8959 436.325 61.4245C436.325 62.953 437.565 64.1922 439.093 64.1922Z" fill="white" fill-opacity="0.3"/>
<path d="M439.093 78.8473C440.622 78.8473 441.861 77.6081 441.861 76.0796C441.861 74.551 440.622 73.3119 439.093 73.3119C437.565 73.3119 436.325 74.551 436.325 76.0796C436.325 77.6081 437.565 78.8473 439.093 78.8473Z" fill="white" fill-opacity="0.3"/>
</g>
</g>
<defs>
<clipPath id="clip0_1_2">
<rect width="443" height="443" fill="white" transform="translate(0.5 0.5)"/>
</clipPath>
</defs>
</svg>
