<svg width="429" height="430" viewBox="0 0 429 430" fill="none" xmlns="http://www.w3.org/2000/svg">
<g clip-path="url(#clip0_1_57)">
<path fill-rule="evenodd" clip-rule="evenodd" d="M21.3321 307.861C-27.2123 207.829 9.18634 85.6395 106.978 29.1795C204.769 -27.28 328.787 2.2926 391.145 94.349L287.657 154.098C258.621 118.667 207.329 108.409 166.373 132.055C125.416 155.701 108.654 205.25 124.82 248.112L21.3321 307.861ZM406.691 121.275C455.235 221.307 418.837 343.497 321.046 399.956C223.254 456.416 99.2357 426.843 36.8781 334.787L140.366 275.038C169.402 310.469 220.694 320.728 261.651 297.082C302.608 273.436 319.369 223.886 303.203 181.024L406.691 121.275ZM182.305 159.651C212.615 142.152 251.43 152.551 268.929 182.861C286.429 213.171 276.028 251.987 245.719 269.486C215.409 286.985 176.593 276.585 159.094 246.275C141.594 215.965 151.995 177.15 182.305 159.651Z" fill="#EBEBEB" fill-opacity="0.35"/>
</g>
<defs>
<clipPath id="clip0_1_57">
<rect width="428" height="429" fill="white" transform="translate(0.5 0.5)"/>
</clipPath>
</defs>
</svg>
